<svg viewBox="0 0 600 300" xmlns="http://www.w3.org/2000/svg"><rect x="60" y="120" width="55" height="60" rx="8" fill="none" stroke="#8B6CFF" stroke-width="2"/><line x1="115" y1="150" x2="130" y2="150" stroke="#8B6CFF" stroke-width="2"/><rect x="130" y="120" width="55" height="60" rx="8" fill="none" stroke="#8B6CFF" stroke-width="2"/><line x1="185" y1="150" x2="200" y2="150" stroke="#8B6CFF" stroke-width="2"/><rect x="200" y="120" width="55" height="60" rx="8" fill="none" stroke="#8B6CFF" stroke-width="2"/><line x1="255" y1="150" x2="270" y2="150" stroke="#8B6CFF" stroke-width="2"/><rect x="270" y="120" width="55" height="60" rx="8" fill="none" stroke="#8B6CFF" stroke-width="2"/><line x1="325" y1="150" x2="340" y2="150" stroke="#8B6CFF" stroke-width="2"/><rect x="340" y="120" width="55" height="60" rx="8" fill="none" stroke="#8B6CFF" stroke-width="2"/><line x1="395" y1="150" x2="410" y2="150" stroke="#8B6CFF" stroke-width="2"/><rect x="410" y="120" width="55" height="60" rx="8" fill="none" stroke="#8B6CFF" stroke-width="2"/><line x1="465" y1="150" x2="480" y2="150" stroke="#8B6CFF" stroke-width="2"/><rect x="480" y="120" width="55" height="60" rx="8" fill="none" stroke="#8B6CFF" stroke-width="2"/><circle cx="87" cy="150" r="4" fill="#8B6CFF"/></svg>